<svg width="31" height="29" viewBox="0 0 31 29" fill="none" xmlns="http://www.w3.org/2000/svg">
<g filter="url(#filter0_dddddiiii_39_5)">
<path fill-rule="evenodd" clip-rule="evenodd" d="M17.7983 7.87914C16.8821 6.96297 15.3967 6.96297 14.4806 7.87914L10.9026 11.4571L16.9689 17.5234C17.885 18.4395 17.885 19.9249 16.9689 20.8411C16.0527 21.7573 14.5673 21.7573 13.6511 20.8411L5.92612 13.1161C5.00986 12.1999 5.00986 10.7143 5.92612 9.79807L11.1628 4.56139C13.9113 1.81287 18.3675 1.81287 21.1161 4.56139L25.5235 8.96878C26.4396 9.88496 26.4396 11.3704 25.5235 12.2865C24.6073 13.2027 23.1219 13.2027 22.2057 12.2865L17.7983 7.87914Z" fill="url(#paint0_radial_39_5)" style=""/>
<path d="M10.8767 11.4312L10.8508 11.4571L10.8767 11.483L16.9429 17.5493C17.8448 18.4511 17.8448 19.9133 16.9429 20.8152C16.0411 21.7171 14.5789 21.7171 13.677 20.8152L5.95204 13.0902C5.0501 12.1883 5.0501 10.7259 5.95204 9.82399L11.1887 4.58731C13.9229 1.8531 18.3559 1.85311 21.0901 4.58731L25.4975 8.9947C26.3994 9.89656 26.3994 11.3588 25.4975 12.2606C24.5957 13.1625 23.1335 13.1625 22.2316 12.2606L17.8242 7.85322C16.8937 6.92273 15.3851 6.92273 14.4546 7.85322L10.8767 11.4312Z" stroke="url(#paint1_linear_39_5)" stroke-opacity="0.24" style="" stroke-width="0.0733127"/>
</g>
<mask id="mask0_39_5" style="mask-type:alpha" maskUnits="userSpaceOnUse" x="5" y="2" width="22" height="20">
<g style="mix-blend-mode:plus-lighter">
<path fill-rule="evenodd" clip-rule="evenodd" d="M17.7987 7.87919C16.8825 6.96302 15.3971 6.96303 14.481 7.87918L10.9031 11.4571L16.9693 17.5233C17.8854 18.4394 17.8854 19.9248 16.9693 20.841C16.0531 21.7571 14.5677 21.7571 13.6516 20.841L6.92187 14.1113C5.99281 13.1822 5.52829 12.7177 5.35424 12.182C5.20114 11.7109 5.20114 11.2033 5.35424 10.7321C5.52829 10.1965 5.99281 9.73194 6.92187 8.80288L11.1633 4.56148C13.9118 1.813 18.3679 1.81301 21.1164 4.56148L25.5237 8.96881C26.4399 9.88497 26.4399 11.3704 25.5237 12.2865C24.6076 13.2027 23.1222 13.2027 22.206 12.2865L17.7987 7.87919Z" fill="#D9D9D9" style="fill:#D9D9D9;fill:color(display-p3 0.8510 0.8510 0.8510);fill-opacity:1;"/>
</g>
</mask>
<g mask="url(#mask0_39_5)">
<g filter="url(#filter1_f_39_5)">
<path d="M10.5682 -0.131563C11.7426 -2.69503 14.3568 -0.502257 16.9202 0.672118C19.4837 1.84649 22.1843 0.721822 21.0099 3.28529C19.8355 5.84876 15.6469 7.81078 13.0834 6.6364C10.5199 5.46203 9.39386 2.43191 10.5682 -0.131563Z" fill="#EF3A8F" style="fill:#EF3A8F;fill:color(display-p3 0.9384 0.2287 0.5599);fill-opacity:1;"/>
</g>
<g filter="url(#filter2_f_39_5)">
<path d="M12.7797 19.2625C13.954 16.6991 16.5682 18.8918 19.1317 20.0662C21.6951 21.2406 24.3957 20.1159 23.2213 22.6794C22.0469 25.2429 17.8583 27.2049 15.2948 26.0305C12.7314 24.8561 11.6053 21.826 12.7797 19.2625Z" fill="#FFB167" style="fill:#FFB167;fill:color(display-p3 1.0000 0.6941 0.4039);fill-opacity:1;"/>
</g>
<g style="mix-blend-mode:overlay" filter="url(#filter3_f_39_5)">
<path d="M24.6367 14.9857C25.4433 9.71304 20.4496 3.58687 17.8519 1.18286L30.5493 9.07307L24.6367 14.9857Z" fill="white" style="fill:white;fill-opacity:1;"/>
</g>
<g style="mix-blend-mode:overlay" opacity="0.48" filter="url(#filter4_f_39_5)">
<path d="M24.6367 14.9857C25.4433 9.71304 20.4496 3.58687 17.8519 1.18286L30.5493 9.07307L24.6367 14.9857Z" fill="white" style="fill:white;fill-opacity:1;"/>
</g>
<g style="mix-blend-mode:overlay" filter="url(#filter5_f_39_5)">
<path d="M16.8659 23.9298C17.6725 18.6571 12.6788 12.531 10.0811 10.127L22.7786 18.0172L16.8659 23.9298Z" fill="white" style="fill:white;fill-opacity:1;"/>
</g>
<g style="mix-blend-mode:overlay" opacity="0.48" filter="url(#filter6_f_39_5)">
<path d="M16.8659 23.9298C17.6725 18.6571 12.6788 12.531 10.0811 10.127L22.7786 18.0172L16.8659 23.9298Z" fill="white" style="fill:white;fill-opacity:1;"/>
</g>
<g style="mix-blend-mode:overlay" filter="url(#filter7_f_39_5)">
<path d="M8.06339 3.1473C5.78564 9.90446 10.949 19.1228 13.8155 22.8874L-1.08564 9.56994L8.06339 3.1473Z" fill="#FFB167" style="fill:#FFB167;fill:color(display-p3 1.0000 0.6941 0.4039);fill-opacity:1;"/>
</g>
<g style="mix-blend-mode:color-dodge" filter="url(#filter8_f_39_5)">
<path d="M21.5237 2.48171C21.947 5.26942 18.1949 2.93792 15.4072 3.36121C12.6195 3.78449 9.85991 6.46461 9.43662 3.67689C9.01333 0.889179 11.4407 -3.04811 14.2284 -3.47139C17.0161 -3.89468 21.1004 -0.306006 21.5237 2.48171Z" fill="#FF67AE" style="fill:#FF67AE;fill:color(display-p3 1.0000 0.4053 0.6828);fill-opacity:1;"/>
</g>
</g>
<g style="mix-blend-mode:plus-lighter" opacity="0.2">
<g filter="url(#filter9_iiii_39_5)">
<path fill-rule="evenodd" clip-rule="evenodd" d="M17.7989 7.87914C16.8827 6.96297 15.3973 6.96297 14.4811 7.87914L10.9032 11.4571L16.9694 17.5234C17.8856 18.4395 17.8856 19.9249 16.9694 20.8411C16.0533 21.7573 14.5679 21.7573 13.6517 20.8411L5.9267 13.1161C5.01044 12.1999 5.01044 10.7143 5.9267 9.79807L11.1634 4.56139C13.9119 1.81287 18.3681 1.81287 21.1166 4.56139L25.524 8.96878C26.4402 9.88496 26.4402 11.3704 25.524 12.2865C24.6079 13.2027 23.1225 13.2027 22.2063 12.2865L17.7989 7.87914Z" fill="url(#paint2_radial_39_5)" fill-opacity="0.01" style=""/>
</g>
<path d="M10.8773 11.4312L10.8513 11.4571L10.8773 11.483L16.9435 17.5493C17.8454 18.4511 17.8454 19.9133 16.9435 20.8152C16.0417 21.7171 14.5795 21.7171 13.6776 20.8152L5.95262 13.0902C5.05068 12.1883 5.05068 10.7259 5.95262 9.82399L11.1893 4.58731C13.9235 1.8531 18.3565 1.85311 21.0907 4.58731L25.4981 8.9947C26.4 9.89656 26.4 11.3588 25.4981 12.2606C24.5963 13.1625 23.1341 13.1625 22.2322 12.2606L17.8248 7.85322C16.8943 6.92273 15.3857 6.92273 14.4552 7.85322L10.8773 11.4312Z" stroke="white" stroke-opacity="0.24" style="stroke:white;stroke-opacity:0.24;" stroke-width="0.0733127"/>
</g>
<defs>
<filter id="filter0_dddddiiii_39_5" x="0.546909" y="0.153994" width="30.3557" height="28.4123" filterUnits="userSpaceOnUse" color-interpolation-filters="sRGB">
<feFlood flood-opacity="0" result="BackgroundImageFix"/>
<feColorMatrix in="SourceAlpha" type="matrix" values="0 0 0 0 0 0 0 0 0 0 0 0 0 0 0 0 0 0 127 0" result="hardAlpha"/>
<feOffset dy="0.293251"/>
<feGaussianBlur stdDeviation="0.293251"/>
<feComposite in2="hardAlpha" operator="out"/>
<feColorMatrix type="matrix" values="0 0 0 0 0 0 0 0 0 0 0 0 0 0 0 0 0 0 0.06 0"/>
<feBlend mode="normal" in2="BackgroundImageFix" result="effect1_dropShadow_39_5"/>
<feColorMatrix in="SourceAlpha" type="matrix" values="0 0 0 0 0 0 0 0 0 0 0 0 0 0 0 0 0 0 127 0" result="hardAlpha"/>
<feOffset dy="0.586502"/>
<feGaussianBlur stdDeviation="0.586502"/>
<feComposite in2="hardAlpha" operator="out"/>
<feColorMatrix type="matrix" values="0 0 0 0 0 0 0 0 0 0 0 0 0 0 0 0 0 0 0.06 0"/>
<feBlend mode="normal" in2="effect1_dropShadow_39_5" result="effect2_dropShadow_39_5"/>
<feColorMatrix in="SourceAlpha" type="matrix" values="0 0 0 0 0 0 0 0 0 0 0 0 0 0 0 0 0 0 127 0" result="hardAlpha"/>
<feOffset dy="1.173"/>
<feGaussianBlur stdDeviation="1.173"/>
<feComposite in2="hardAlpha" operator="out"/>
<feColorMatrix type="matrix" values="0 0 0 0 0 0 0 0 0 0 0 0 0 0 0 0 0 0 0.06 0"/>
<feBlend mode="normal" in2="effect2_dropShadow_39_5" result="effect3_dropShadow_39_5"/>
<feColorMatrix in="SourceAlpha" type="matrix" values="0 0 0 0 0 0 0 0 0 0 0 0 0 0 0 0 0 0 127 0" result="hardAlpha"/>
<feOffset dy="2.34601"/>
<feGaussianBlur stdDeviation="2.34601"/>
<feComposite in2="hardAlpha" operator="out"/>
<feColorMatrix type="matrix" values="0 0 0 0 0 0 0 0 0 0 0 0 0 0 0 0 0 0 0.24 0"/>
<feBlend mode="normal" in2="effect3_dropShadow_39_5" result="effect4_dropShadow_39_5"/>
<feColorMatrix in="SourceAlpha" type="matrix" values="0 0 0 0 0 0 0 0 0 0 0 0 0 0 0 0 0 0 127 0" result="hardAlpha"/>
<feMorphology radius="0.586502" operator="dilate" in="SourceAlpha" result="effect5_dropShadow_39_5"/>
<feOffset/>
<feGaussianBlur stdDeviation="0.439876"/>
<feComposite in2="hardAlpha" operator="out"/>
<feColorMatrix type="matrix" values="0 0 0 0 0 0 0 0 0 0 0 0 0 0 0 0 0 0 1 0"/>
<feBlend mode="normal" in2="effect4_dropShadow_39_5" result="effect5_dropShadow_39_5"/>
<feBlend mode="normal" in="SourceGraphic" in2="effect5_dropShadow_39_5" result="shape"/>
<feColorMatrix in="SourceAlpha" type="matrix" values="0 0 0 0 0 0 0 0 0 0 0 0 0 0 0 0 0 0 127 0" result="hardAlpha"/>
<feOffset dy="0.0733127"/>
<feGaussianBlur stdDeviation="0.0366563"/>
<feComposite in2="hardAlpha" operator="arithmetic" k2="-1" k3="1"/>
<feColorMatrix type="matrix" values="0 0 0 0 1 0 0 0 0 1 0 0 0 0 1 0 0 0 0.24 0"/>
<feBlend mode="normal" in2="shape" result="effect6_innerShadow_39_5"/>
<feColorMatrix in="SourceAlpha" type="matrix" values="0 0 0 0 0 0 0 0 0 0 0 0 0 0 0 0 0 0 127 0" result="hardAlpha"/>
<feOffset dy="0.221404"/>
<feGaussianBlur stdDeviation="0.109969"/>
<feComposite in2="hardAlpha" operator="arithmetic" k2="-1" k3="1"/>
<feColorMatrix type="matrix" values="0 0 0 0 1 0 0 0 0 1 0 0 0 0 1 0 0 0 0.16 0"/>
<feBlend mode="normal" in2="effect6_innerShadow_39_5" result="effect7_innerShadow_39_5"/>
<feColorMatrix in="SourceAlpha" type="matrix" values="0 0 0 0 0 0 0 0 0 0 0 0 0 0 0 0 0 0 127 0" result="hardAlpha"/>
<feOffset dy="0.439876"/>
<feGaussianBlur stdDeviation="0.219938"/>
<feComposite in2="hardAlpha" operator="arithmetic" k2="-1" k3="1"/>
<feColorMatrix type="matrix" values="0 0 0 0 1 0 0 0 0 1 0 0 0 0 1 0 0 0 0.24 0"/>
<feBlend mode="normal" in2="effect7_innerShadow_39_5" result="effect8_innerShadow_39_5"/>
<feColorMatrix in="SourceAlpha" type="matrix" values="0 0 0 0 0 0 0 0 0 0 0 0 0 0 0 0 0 0 127 0" result="hardAlpha"/>
<feOffset dy="1.173"/>
<feGaussianBlur stdDeviation="0.733127"/>
<feComposite in2="hardAlpha" operator="arithmetic" k2="-1" k3="1"/>
<feColorMatrix type="matrix" values="0 0 0 0 1 0 0 0 0 1 0 0 0 0 1 0 0 0 0.12 0"/>
<feBlend mode="normal" in2="effect8_innerShadow_39_5" result="effect9_innerShadow_39_5"/>
</filter>
<filter id="filter1_f_39_5" x="5.52534" y="-5.90154" width="20.3451" height="17.4643" filterUnits="userSpaceOnUse" color-interpolation-filters="sRGB">
<feFlood flood-opacity="0" result="BackgroundImageFix"/>
<feBlend mode="normal" in="SourceGraphic" in2="BackgroundImageFix" result="shape"/>
<feGaussianBlur stdDeviation="2.28887" result="effect1_foregroundBlur_39_5"/>
</filter>
<filter id="filter2_f_39_5" x="7.73677" y="13.4926" width="20.3451" height="17.4643" filterUnits="userSpaceOnUse" color-interpolation-filters="sRGB">
<feFlood flood-opacity="0" result="BackgroundImageFix"/>
<feBlend mode="normal" in="SourceGraphic" in2="BackgroundImageFix" result="shape"/>
<feGaussianBlur stdDeviation="2.28887" result="effect1_foregroundBlur_39_5"/>
</filter>
<filter id="filter3_f_39_5" x="11.9869" y="-4.68215" width="24.4275" height="25.5329" filterUnits="userSpaceOnUse" color-interpolation-filters="sRGB">
<feFlood flood-opacity="0" result="BackgroundImageFix"/>
<feBlend mode="normal" in="SourceGraphic" in2="BackgroundImageFix" result="shape"/>
<feGaussianBlur stdDeviation="2.93251" result="effect1_foregroundBlur_39_5"/>
</filter>
<filter id="filter4_f_39_5" x="15.5059" y="-1.16315" width="17.3895" height="18.4949" filterUnits="userSpaceOnUse" color-interpolation-filters="sRGB">
<feFlood flood-opacity="0" result="BackgroundImageFix"/>
<feBlend mode="normal" in="SourceGraphic" in2="BackgroundImageFix" result="shape"/>
<feGaussianBlur stdDeviation="1.173" result="effect1_foregroundBlur_39_5"/>
</filter>
<filter id="filter5_f_39_5" x="4.21607" y="4.26194" width="24.4275" height="25.5329" filterUnits="userSpaceOnUse" color-interpolation-filters="sRGB">
<feFlood flood-opacity="0" result="BackgroundImageFix"/>
<feBlend mode="normal" in="SourceGraphic" in2="BackgroundImageFix" result="shape"/>
<feGaussianBlur stdDeviation="2.93251" result="effect1_foregroundBlur_39_5"/>
</filter>
<filter id="filter6_f_39_5" x="8.90808" y="8.95395" width="15.0435" height="16.1489" filterUnits="userSpaceOnUse" color-interpolation-filters="sRGB">
<feFlood flood-opacity="0" result="BackgroundImageFix"/>
<feBlend mode="normal" in="SourceGraphic" in2="BackgroundImageFix" result="shape"/>
<feGaussianBlur stdDeviation="0.586502" result="effect1_foregroundBlur_39_5"/>
</filter>
<filter id="filter7_f_39_5" x="-4.60464" y="-0.371732" width="21.9391" height="26.7781" filterUnits="userSpaceOnUse" color-interpolation-filters="sRGB">
<feFlood flood-opacity="0" result="BackgroundImageFix"/>
<feBlend mode="normal" in="SourceGraphic" in2="BackgroundImageFix" result="shape"/>
<feGaussianBlur stdDeviation="1.7595" result="effect1_foregroundBlur_39_5"/>
</filter>
<filter id="filter8_f_39_5" x="6.79022" y="-6.1038" width="17.3646" height="13.6301" filterUnits="userSpaceOnUse" color-interpolation-filters="sRGB">
<feFlood flood-opacity="0" result="BackgroundImageFix"/>
<feBlend mode="normal" in="SourceGraphic" in2="BackgroundImageFix" result="shape"/>
<feGaussianBlur stdDeviation="1.29909" result="effect1_foregroundBlur_39_5"/>
</filter>
<filter id="filter9_iiii_39_5" x="5.2395" y="2.5" width="20.9716" height="20.2013" filterUnits="userSpaceOnUse" color-interpolation-filters="sRGB">
<feFlood flood-opacity="0" result="BackgroundImageFix"/>
<feBlend mode="normal" in="SourceGraphic" in2="BackgroundImageFix" result="shape"/>
<feColorMatrix in="SourceAlpha" type="matrix" values="0 0 0 0 0 0 0 0 0 0 0 0 0 0 0 0 0 0 127 0" result="hardAlpha"/>
<feOffset dy="0.0733127"/>
<feGaussianBlur stdDeviation="0.0366563"/>
<feComposite in2="hardAlpha" operator="arithmetic" k2="-1" k3="1"/>
<feColorMatrix type="matrix" values="0 0 0 0 1 0 0 0 0 1 0 0 0 0 1 0 0 0 0.24 0"/>
<feBlend mode="normal" in2="shape" result="effect1_innerShadow_39_5"/>
<feColorMatrix in="SourceAlpha" type="matrix" values="0 0 0 0 0 0 0 0 0 0 0 0 0 0 0 0 0 0 127 0" result="hardAlpha"/>
<feOffset dy="0.221404"/>
<feGaussianBlur stdDeviation="0.109969"/>
<feComposite in2="hardAlpha" operator="arithmetic" k2="-1" k3="1"/>
<feColorMatrix type="matrix" values="0 0 0 0 1 0 0 0 0 1 0 0 0 0 1 0 0 0 0.16 0"/>
<feBlend mode="normal" in2="effect1_innerShadow_39_5" result="effect2_innerShadow_39_5"/>
<feColorMatrix in="SourceAlpha" type="matrix" values="0 0 0 0 0 0 0 0 0 0 0 0 0 0 0 0 0 0 127 0" result="hardAlpha"/>
<feOffset dy="0.439876"/>
<feGaussianBlur stdDeviation="0.219938"/>
<feComposite in2="hardAlpha" operator="arithmetic" k2="-1" k3="1"/>
<feColorMatrix type="matrix" values="0 0 0 0 1 0 0 0 0 1 0 0 0 0 1 0 0 0 0.24 0"/>
<feBlend mode="normal" in2="effect2_innerShadow_39_5" result="effect3_innerShadow_39_5"/>
<feColorMatrix in="SourceAlpha" type="matrix" values="0 0 0 0 0 0 0 0 0 0 0 0 0 0 0 0 0 0 127 0" result="hardAlpha"/>
<feOffset dy="1.173"/>
<feGaussianBlur stdDeviation="0.733127"/>
<feComposite in2="hardAlpha" operator="arithmetic" k2="-1" k3="1"/>
<feColorMatrix type="matrix" values="0 0 0 0 1 0 0 0 0 1 0 0 0 0 1 0 0 0 0.12 0"/>
<feBlend mode="normal" in2="effect3_innerShadow_39_5" result="effect4_innerShadow_39_5"/>
</filter>
<radialGradient id="paint0_radial_39_5" cx="0" cy="0" r="1" gradientUnits="userSpaceOnUse" gradientTransform="translate(11.2946 14.3162) rotate(-18.3568) scale(14.4692 15.498)">
<stop stop-color="#FF8763" style="stop-color:#FF8763;stop-color:color(display-p3 1.0000 0.5295 0.3863);stop-opacity:1;"/>
<stop offset="1" stop-color="#FF5196" style="stop-color:#FF5196;stop-color:color(display-p3 1.0000 0.3164 0.5899);stop-opacity:1;"/>
</radialGradient>
<linearGradient id="paint1_linear_39_5" x1="27.1823" y1="12.5" x2="4.26709" y2="12.5" gradientUnits="userSpaceOnUse">
<stop stop-color="white" style="stop-color:white;stop-opacity:1;"/>
<stop offset="1" stop-color="white" stop-opacity="0" style="stop-color:none;stop-opacity:0;"/>
</linearGradient>
<radialGradient id="paint2_radial_39_5" cx="0" cy="0" r="1" gradientUnits="userSpaceOnUse" gradientTransform="translate(3.85295 2.5) rotate(58.8376) scale(27.0889 29.015)">
<stop stop-color="#FFB763" style="stop-color:#FFB763;stop-color:color(display-p3 1.0000 0.7177 0.3863);stop-opacity:1;"/>
<stop offset="1" stop-color="#FF51C4" style="stop-color:#FF51C4;stop-color:color(display-p3 1.0000 0.3164 0.7676);stop-opacity:1;"/>
</radialGradient>
</defs>
</svg>
