<svg width="20" height="21" viewBox="0 0 20 21" fill="none" xmlns="http://www.w3.org/2000/svg">
	<path fill-rule="evenodd" clip-rule="evenodd"
		d="M11.8685 2.58276C12.315 2.69438 12.5865 3.14682 12.4748 3.59332L9.1415 16.9267C9.02992 17.3732 8.5775 17.6446 8.13097 17.533C7.68448 17.4214 7.41301 16.969 7.52463 16.5225L10.858 3.1891C10.9696 2.7426 11.422 2.47113 11.8685 2.58276ZM5.58901 6.13532C5.91444 6.46076 5.91444 6.9884 5.589 7.31383L3.43418 9.46863C3.10874 9.79405 3.10874 10.3217 3.43418 10.6471L5.589 12.802C5.91444 13.1274 5.91444 13.655 5.589 13.9805C5.26357 14.306 4.73593 14.306 4.41049 13.9805L2.25567 11.8257C1.27936 10.8494 1.27936 9.26647 2.25568 8.29014L4.41049 6.13532C4.73593 5.80988 5.26357 5.80988 5.58901 6.13532ZM14.4105 6.13532C14.7359 5.80988 15.2636 5.80988 15.589 6.13532L17.7438 8.29014C18.7202 9.26647 18.7202 10.8494 17.7438 11.8257L15.589 13.9805C15.2636 14.306 14.7359 14.306 14.4105 13.9805C14.0851 13.655 14.0851 13.1274 14.4105 12.802L16.5653 10.6471C16.8908 10.3217 16.8908 9.79405 16.5653 9.46863L14.4105 7.31383C14.0851 6.9884 14.0851 6.46076 14.4105 6.13532Z"
		fill="white" style="fill:white;fill-opacity:1;" />
	<path fill-rule="evenodd" clip-rule="evenodd"
		d="M11.8685 2.58276C12.315 2.69438 12.5865 3.14682 12.4748 3.59332L9.1415 16.9267C9.02992 17.3732 8.5775 17.6446 8.13097 17.533C7.68448 17.4214 7.41301 16.969 7.52463 16.5225L10.858 3.1891C10.9696 2.7426 11.422 2.47113 11.8685 2.58276ZM5.58901 6.13532C5.91444 6.46076 5.91444 6.9884 5.589 7.31383L3.43418 9.46863C3.10874 9.79405 3.10874 10.3217 3.43418 10.6471L5.589 12.802C5.91444 13.1274 5.91444 13.655 5.589 13.9805C5.26357 14.306 4.73593 14.306 4.41049 13.9805L2.25567 11.8257C1.27936 10.8494 1.27936 9.26647 2.25568 8.29014L4.41049 6.13532C4.73593 5.80988 5.26357 5.80988 5.58901 6.13532ZM14.4105 6.13532C14.7359 5.80988 15.2636 5.80988 15.589 6.13532L17.7438 8.29014C18.7202 9.26647 18.7202 10.8494 17.7438 11.8257L15.589 13.9805C15.2636 14.306 14.7359 14.306 14.4105 13.9805C14.0851 13.655 14.0851 13.1274 14.4105 12.802L16.5653 10.6471C16.8908 10.3217 16.8908 9.79405 16.5653 9.46863L14.4105 7.31383C14.0851 6.9884 14.0851 6.46076 14.4105 6.13532Z"
		fill="url(#paint0_linear_1225_21094)" style="" />
	<path fill-rule="evenodd" clip-rule="evenodd"
		d="M11.8685 2.58276C12.315 2.69438 12.5865 3.14682 12.4748 3.59332L9.1415 16.9267C9.02992 17.3732 8.5775 17.6446 8.13097 17.533C7.68448 17.4214 7.41301 16.969 7.52463 16.5225L10.858 3.1891C10.9696 2.7426 11.422 2.47113 11.8685 2.58276ZM5.58901 6.13532C5.91444 6.46076 5.91444 6.9884 5.589 7.31383L3.43418 9.46863C3.10874 9.79405 3.10874 10.3217 3.43418 10.6471L5.589 12.802C5.91444 13.1274 5.91444 13.655 5.589 13.9805C5.26357 14.306 4.73593 14.306 4.41049 13.9805L2.25567 11.8257C1.27936 10.8494 1.27936 9.26647 2.25568 8.29014L4.41049 6.13532C4.73593 5.80988 5.26357 5.80988 5.58901 6.13532ZM14.4105 6.13532C14.7359 5.80988 15.2636 5.80988 15.589 6.13532L17.7438 8.29014C18.7202 9.26647 18.7202 10.8494 17.7438 11.8257L15.589 13.9805C15.2636 14.306 14.7359 14.306 14.4105 13.9805C14.0851 13.655 14.0851 13.1274 14.4105 12.802L16.5653 10.6471C16.8908 10.3217 16.8908 9.79405 16.5653 9.46863L14.4105 7.31383C14.0851 6.9884 14.0851 6.46076 14.4105 6.13532Z"
		fill="url(#paint1_linear_1225_21094)" fill-opacity="0.75" style="mix-blend-mode:overlay" />
	<defs>
		<linearGradient id="paint0_linear_1225_21094" x1="1.52344" y1="10.0579" x2="16.0147" y2="16.0302"
			gradientUnits="userSpaceOnUse">
			<stop stop-color="#FF8763"
				style="stop-color:#FF8763;stop-color:color(display-p3 1.0000 0.5294 0.3882);stop-opacity:1;" />
			<stop offset="1" stop-color="#FE0291"
				style="stop-color:#FE0291;stop-color:color(display-p3 0.9961 0.0078 0.5678);stop-opacity:1;" />
		</linearGradient>
		<linearGradient id="paint1_linear_1225_21094" x1="11.2512" y1="11.549" x2="5.03959" y2="9.81359"
			gradientUnits="userSpaceOnUse">
			<stop stop-color="white" stop-opacity="0" style="stop-color:none;stop-opacity:0;" />
			<stop offset="0.196137" stop-color="white" stop-opacity="0.8"
				style="stop-color:white;stop-opacity:0.8;" />
			<stop offset="0.368776" stop-color="white" style="stop-color:white;stop-opacity:1;" />
			<stop offset="0.877213" stop-color="white" stop-opacity="0"
				style="stop-color:none;stop-opacity:0;" />
		</linearGradient>
	</defs>
</svg>