<svg width="20" height="21" viewBox="0 0 20 21" fill="none" xmlns="http://www.w3.org/2000/svg">
	<path fill-rule="evenodd" clip-rule="evenodd"
		d="M2.5 5.05786C2.5 3.67715 3.61929 2.55786 5 2.55786H15C16.3807 2.55786 17.5 3.67715 17.5 5.05786V15.0579C17.5 16.4386 16.3807 17.5579 15 17.5579H5C3.61929 17.5579 2.5 16.4386 2.5 15.0579V5.05786ZM12.1036 6.93108C12.7257 6.76142 13.2965 7.33223 13.1268 7.95431L12.1939 11.3748C12.0775 11.8018 11.7439 12.1354 11.3169 12.2518L7.89645 13.1847C7.27437 13.3544 6.70356 12.7835 6.87322 12.1614L7.80607 8.74094C7.92252 8.31397 8.25611 7.98039 8.68308 7.86393L12.1036 6.93108Z"
		fill="white" style="fill:white;fill-opacity:1;" />
	<path fill-rule="evenodd" clip-rule="evenodd"
		d="M2.5 5.05786C2.5 3.67715 3.61929 2.55786 5 2.55786H15C16.3807 2.55786 17.5 3.67715 17.5 5.05786V15.0579C17.5 16.4386 16.3807 17.5579 15 17.5579H5C3.61929 17.5579 2.5 16.4386 2.5 15.0579V5.05786ZM12.1036 6.93108C12.7257 6.76142 13.2965 7.33223 13.1268 7.95431L12.1939 11.3748C12.0775 11.8018 11.7439 12.1354 11.3169 12.2518L7.89645 13.1847C7.27437 13.3544 6.70356 12.7835 6.87322 12.1614L7.80607 8.74094C7.92252 8.31397 8.25611 7.98039 8.68308 7.86393L12.1036 6.93108Z"
		fill="url(#paint0_linear_1225_21086)" style="" />
	<path fill-rule="evenodd" clip-rule="evenodd"
		d="M2.5 5.05786C2.5 3.67715 3.61929 2.55786 5 2.55786H15C16.3807 2.55786 17.5 3.67715 17.5 5.05786V15.0579C17.5 16.4386 16.3807 17.5579 15 17.5579H5C3.61929 17.5579 2.5 16.4386 2.5 15.0579V5.05786ZM12.1036 6.93108C12.7257 6.76142 13.2965 7.33223 13.1268 7.95431L12.1939 11.3748C12.0775 11.8018 11.7439 12.1354 11.3169 12.2518L7.89645 13.1847C7.27437 13.3544 6.70356 12.7835 6.87322 12.1614L7.80607 8.74094C7.92252 8.31397 8.25611 7.98039 8.68308 7.86393L12.1036 6.93108Z"
		fill="url(#paint1_linear_1225_21086)" fill-opacity="0.75" style="mix-blend-mode:overlay" />
	<defs>
		<linearGradient id="paint0_linear_1225_21086" x1="2.5" y1="10.0579" x2="15.7394" y2="14.8859"
			gradientUnits="userSpaceOnUse">
			<stop stop-color="#FF8763"
				style="stop-color:#FF8763;stop-color:color(display-p3 1.0000 0.5294 0.3882);stop-opacity:1;" />
			<stop offset="1" stop-color="#FE0291"
				style="stop-color:#FE0291;stop-color:color(display-p3 0.9961 0.0078 0.5678);stop-opacity:1;" />
		</linearGradient>
		<linearGradient id="paint1_linear_1225_21086" x1="11.1073" y1="11.5489" x2="5.5234" y2="10.1685"
			gradientUnits="userSpaceOnUse">
			<stop stop-color="white" stop-opacity="0" style="stop-color:none;stop-opacity:0;" />
			<stop offset="0.196137" stop-color="white" stop-opacity="0.8"
				style="stop-color:white;stop-opacity:0.8;" />
			<stop offset="0.368776" stop-color="white" style="stop-color:white;stop-opacity:1;" />
			<stop offset="0.877213" stop-color="white" stop-opacity="0"
				style="stop-color:none;stop-opacity:0;" />
		</linearGradient>
	</defs>
</svg>