<svg width="20" height="21" viewBox="0 0 20 21" fill="none" xmlns="http://www.w3.org/2000/svg">
	<path fill-rule="evenodd" clip-rule="evenodd"
		d="M9.99935 1.72461C5.39697 1.72461 1.66602 5.45557 1.66602 10.0579C1.66602 10.9289 1.79964 11.7688 2.04752 12.5579H8.65102L6.75399 8.76394C6.54817 8.35231 6.71502 7.85174 7.12667 7.64592C7.53832 7.44009 8.03888 7.60695 8.24471 8.0186L10.5143 12.5579H17.9512C18.199 11.7688 18.3327 10.9289 18.3327 10.0579C18.3327 5.45557 14.6017 1.72461 9.99935 1.72461ZM9.99931 18.3913C6.9148 18.3913 4.2217 16.7154 2.78082 14.2246H17.2178C15.7769 16.7154 13.0838 18.3913 9.99931 18.3913Z"
		fill="white" style="fill:white;fill-opacity:1;" />
	<path fill-rule="evenodd" clip-rule="evenodd"
		d="M9.99935 1.72461C5.39697 1.72461 1.66602 5.45557 1.66602 10.0579C1.66602 10.9289 1.79964 11.7688 2.04752 12.5579H8.65102L6.75399 8.76394C6.54817 8.35231 6.71502 7.85174 7.12667 7.64592C7.53832 7.44009 8.03888 7.60695 8.24471 8.0186L10.5143 12.5579H17.9512C18.199 11.7688 18.3327 10.9289 18.3327 10.0579C18.3327 5.45557 14.6017 1.72461 9.99935 1.72461ZM9.99931 18.3913C6.9148 18.3913 4.2217 16.7154 2.78082 14.2246H17.2178C15.7769 16.7154 13.0838 18.3913 9.99931 18.3913Z"
		fill="url(#paint0_linear_1225_21110)" style="" />
	<path fill-rule="evenodd" clip-rule="evenodd"
		d="M9.99935 1.72461C5.39697 1.72461 1.66602 5.45557 1.66602 10.0579C1.66602 10.9289 1.79964 11.7688 2.04752 12.5579H8.65102L6.75399 8.76394C6.54817 8.35231 6.71502 7.85174 7.12667 7.64592C7.53832 7.44009 8.03888 7.60695 8.24471 8.0186L10.5143 12.5579H17.9512C18.199 11.7688 18.3327 10.9289 18.3327 10.0579C18.3327 5.45557 14.6017 1.72461 9.99935 1.72461ZM9.99931 18.3913C6.9148 18.3913 4.2217 16.7154 2.78082 14.2246H17.2178C15.7769 16.7154 13.0838 18.3913 9.99931 18.3913Z"
		fill="url(#paint1_linear_1225_21110)" fill-opacity="0.75" style="mix-blend-mode:overlay" />
	<defs>
		<linearGradient id="paint0_linear_1225_21110" x1="1.66602" y1="10.0579" x2="16.3764" y2="15.4224"
			gradientUnits="userSpaceOnUse">
			<stop stop-color="#FF8763"
				style="stop-color:#FF8763;stop-color:color(display-p3 1.0000 0.5294 0.3882);stop-opacity:1;" />
			<stop offset="1" stop-color="#FE0291"
				style="stop-color:#FE0291;stop-color:color(display-p3 0.9961 0.0078 0.5678);stop-opacity:1;" />
		</linearGradient>
		<linearGradient id="paint1_linear_1225_21110" x1="11.2297" y1="11.7146" x2="5.02535" y2="10.1809"
			gradientUnits="userSpaceOnUse">
			<stop stop-color="white" stop-opacity="0" style="stop-color:none;stop-opacity:0;" />
			<stop offset="0.196137" stop-color="white" stop-opacity="0.8"
				style="stop-color:white;stop-opacity:0.8;" />
			<stop offset="0.368776" stop-color="white" style="stop-color:white;stop-opacity:1;" />
			<stop offset="0.877213" stop-color="white" stop-opacity="0"
				style="stop-color:none;stop-opacity:0;" />
		</linearGradient>
	</defs>
</svg>