<svg width="20" height="21" viewBox="0 0 20 21" fill="none" xmlns="http://www.w3.org/2000/svg">
	<path d="M8.33398 2.55788C8.33398 2.09765 7.96088 1.72455 7.50065 1.72455C7.04042 1.72455 6.66732 2.09765 6.66732 2.55788V5.05788H5.83398C4.45328 5.05788 3.33398 6.17717 3.33398 7.55788V11.7245C3.33398 14.0257 5.19947 15.8912 7.50065 15.8912H9.16732V17.5579C9.16732 18.0181 9.5404 18.3912 10.0007 18.3912C10.4609 18.3912 10.834 18.0181 10.834 17.5579V15.8912H12.5007C14.8018 15.8912 16.6673 14.0257 16.6673 11.7245V7.55788C16.6673 6.17717 15.5481 5.05788 14.1673 5.05788H13.334V2.55788C13.334 2.09765 12.9609 1.72455 12.5007 1.72455C12.0404 1.72455 11.6673 2.09765 11.6673 2.55788V5.05788H8.33398V2.55788Z"
		fill="white" style="fill:white;fill-opacity:1;" />
	<path d="M8.33398 2.55788C8.33398 2.09765 7.96088 1.72455 7.50065 1.72455C7.04042 1.72455 6.66732 2.09765 6.66732 2.55788V5.05788H5.83398C4.45328 5.05788 3.33398 6.17717 3.33398 7.55788V11.7245C3.33398 14.0257 5.19947 15.8912 7.50065 15.8912H9.16732V17.5579C9.16732 18.0181 9.5404 18.3912 10.0007 18.3912C10.4609 18.3912 10.834 18.0181 10.834 17.5579V15.8912H12.5007C14.8018 15.8912 16.6673 14.0257 16.6673 11.7245V7.55788C16.6673 6.17717 15.5481 5.05788 14.1673 5.05788H13.334V2.55788C13.334 2.09765 12.9609 1.72455 12.5007 1.72455C12.0404 1.72455 11.6673 2.09765 11.6673 2.55788V5.05788H8.33398V2.55788Z"
		fill="url(#paint0_linear_1225_21102)" style="" />
	<path d="M8.33398 2.55788C8.33398 2.09765 7.96088 1.72455 7.50065 1.72455C7.04042 1.72455 6.66732 2.09765 6.66732 2.55788V5.05788H5.83398C4.45328 5.05788 3.33398 6.17717 3.33398 7.55788V11.7245C3.33398 14.0257 5.19947 15.8912 7.50065 15.8912H9.16732V17.5579C9.16732 18.0181 9.5404 18.3912 10.0007 18.3912C10.4609 18.3912 10.834 18.0181 10.834 17.5579V15.8912H12.5007C14.8018 15.8912 16.6673 14.0257 16.6673 11.7245V7.55788C16.6673 6.17717 15.5481 5.05788 14.1673 5.05788H13.334V2.55788C13.334 2.09765 12.9609 1.72455 12.5007 1.72455C12.0404 1.72455 11.6673 2.09765 11.6673 2.55788V5.05788H8.33398V2.55788Z"
		fill="url(#paint1_linear_1225_21102)" fill-opacity="0.75" style="mix-blend-mode:overlay" />
	<defs>
		<linearGradient id="paint0_linear_1225_21102" x1="3.33398" y1="10.0579" x2="15.6215" y2="13.6426"
			gradientUnits="userSpaceOnUse">
			<stop stop-color="#FF8763"
				style="stop-color:#FF8763;stop-color:color(display-p3 1.0000 0.5294 0.3882);stop-opacity:1;" />
			<stop offset="1" stop-color="#FE0291"
				style="stop-color:#FE0291;stop-color:color(display-p3 0.9961 0.0078 0.5678);stop-opacity:1;" />
		</linearGradient>
		<linearGradient id="paint1_linear_1225_21102" x1="10.9849" y1="11.7146" x2="5.91637" y2="10.7122"
			gradientUnits="userSpaceOnUse">
			<stop stop-color="white" stop-opacity="0" style="stop-color:none;stop-opacity:0;" />
			<stop offset="0.196137" stop-color="white" stop-opacity="0.8"
				style="stop-color:white;stop-opacity:0.8;" />
			<stop offset="0.368776" stop-color="white" style="stop-color:white;stop-opacity:1;" />
			<stop offset="0.877213" stop-color="white" stop-opacity="0"
				style="stop-color:none;stop-opacity:0;" />
		</linearGradient>
	</defs>
</svg>