<svg width="20" height="21" viewBox="0 0 20 21" fill="none" xmlns="http://www.w3.org/2000/svg">
	<path fill-rule="evenodd" clip-rule="evenodd"
		d="M16.6673 4.64128V6.30794H16.6539C16.5854 6.83598 16.2637 7.25128 15.9132 7.54725C15.514 7.88437 14.9857 8.15043 14.4057 8.35753C13.2387 8.77436 11.6812 9.01628 10.0007 9.01628C8.32016 9.01628 6.76265 8.77436 5.59558 8.35753C5.01568 8.15043 4.48736 7.88437 4.0881 7.54725C3.73758 7.25128 3.41588 6.83598 3.34738 6.30794H3.33398V4.64128C3.33398 4.0132 3.69272 3.52749 4.0881 3.19363C4.48736 2.85652 5.01568 2.59046 5.59558 2.38335C6.76265 1.96654 8.32016 1.72461 10.0007 1.72461C11.6812 1.72461 13.2387 1.96654 14.4057 2.38335C14.9857 2.59046 15.514 2.85652 15.9132 3.19363C16.3086 3.52749 16.6673 4.0132 16.6673 4.64128ZM5.16336 4.46706C5.05933 4.55489 5.01999 4.61362 5.00593 4.64128C5.01999 4.66893 5.05933 4.72766 5.16336 4.81549C5.35447 4.97686 5.68043 5.15973 6.15614 5.32963C7.10032 5.66683 8.45948 5.89128 10.0007 5.89128C11.5418 5.89128 12.901 5.66683 13.8451 5.32963C14.3209 5.15973 14.6468 4.97686 14.838 4.81549C14.942 4.72766 14.9813 4.66893 14.9954 4.64128C14.9813 4.61362 14.942 4.55489 14.838 4.46706C14.6468 4.30569 14.3209 4.12282 13.8451 3.95292C12.901 3.61572 11.5418 3.39128 10.0007 3.39128C8.45948 3.39128 7.10032 3.61572 6.15614 3.95292C5.68043 4.12282 5.35447 4.30569 5.16336 4.46706ZM16.6673 9.27759C16.1329 9.65784 15.5337 9.93259 14.9663 10.1353C13.5763 10.6317 11.8205 10.8911 10.0007 10.8911C8.18085 10.8911 6.425 10.6317 5.03502 10.1353C4.46765 9.93259 3.8684 9.65784 3.33398 9.27759V10.8911C3.33398 11.5192 3.69272 12.0048 4.0881 12.3388C4.48736 12.6758 5.01568 12.9419 5.59558 13.149C6.76265 13.5658 8.32016 13.8078 10.0007 13.8078C11.6812 13.8078 13.2387 13.5658 14.4057 13.149C14.9857 12.9419 15.514 12.6758 15.9132 12.3388C16.3086 12.0048 16.6673 11.5192 16.6673 10.8911V9.27759ZM3.33398 13.8611V15.4746C3.33398 16.1027 3.69272 16.5883 4.0881 16.9222C4.48736 17.2593 5.01568 17.5254 5.59558 17.7325C6.76265 18.1493 8.32016 18.3913 10.0007 18.3913C11.6812 18.3913 13.2387 18.1493 14.4057 17.7325C14.9857 17.5254 15.514 17.2593 15.9132 16.9222C16.3086 16.5883 16.6673 16.1027 16.6673 15.4746V13.8611C16.1329 14.2413 15.5337 14.5161 14.9663 14.7188C13.5763 15.2152 11.8205 15.4746 10.0007 15.4746C8.18085 15.4746 6.425 15.2152 5.03502 14.7188C4.46765 14.5161 3.8684 14.2413 3.33398 13.8611Z"
		fill="white" style="fill:white;fill-opacity:1;" />
	<path fill-rule="evenodd" clip-rule="evenodd"
		d="M16.6673 4.64128V6.30794H16.6539C16.5854 6.83598 16.2637 7.25128 15.9132 7.54725C15.514 7.88437 14.9857 8.15043 14.4057 8.35753C13.2387 8.77436 11.6812 9.01628 10.0007 9.01628C8.32016 9.01628 6.76265 8.77436 5.59558 8.35753C5.01568 8.15043 4.48736 7.88437 4.0881 7.54725C3.73758 7.25128 3.41588 6.83598 3.34738 6.30794H3.33398V4.64128C3.33398 4.0132 3.69272 3.52749 4.0881 3.19363C4.48736 2.85652 5.01568 2.59046 5.59558 2.38335C6.76265 1.96654 8.32016 1.72461 10.0007 1.72461C11.6812 1.72461 13.2387 1.96654 14.4057 2.38335C14.9857 2.59046 15.514 2.85652 15.9132 3.19363C16.3086 3.52749 16.6673 4.0132 16.6673 4.64128ZM5.16336 4.46706C5.05933 4.55489 5.01999 4.61362 5.00593 4.64128C5.01999 4.66893 5.05933 4.72766 5.16336 4.81549C5.35447 4.97686 5.68043 5.15973 6.15614 5.32963C7.10032 5.66683 8.45948 5.89128 10.0007 5.89128C11.5418 5.89128 12.901 5.66683 13.8451 5.32963C14.3209 5.15973 14.6468 4.97686 14.838 4.81549C14.942 4.72766 14.9813 4.66893 14.9954 4.64128C14.9813 4.61362 14.942 4.55489 14.838 4.46706C14.6468 4.30569 14.3209 4.12282 13.8451 3.95292C12.901 3.61572 11.5418 3.39128 10.0007 3.39128C8.45948 3.39128 7.10032 3.61572 6.15614 3.95292C5.68043 4.12282 5.35447 4.30569 5.16336 4.46706ZM16.6673 9.27759C16.1329 9.65784 15.5337 9.93259 14.9663 10.1353C13.5763 10.6317 11.8205 10.8911 10.0007 10.8911C8.18085 10.8911 6.425 10.6317 5.03502 10.1353C4.46765 9.93259 3.8684 9.65784 3.33398 9.27759V10.8911C3.33398 11.5192 3.69272 12.0048 4.0881 12.3388C4.48736 12.6758 5.01568 12.9419 5.59558 13.149C6.76265 13.5658 8.32016 13.8078 10.0007 13.8078C11.6812 13.8078 13.2387 13.5658 14.4057 13.149C14.9857 12.9419 15.514 12.6758 15.9132 12.3388C16.3086 12.0048 16.6673 11.5192 16.6673 10.8911V9.27759ZM3.33398 13.8611V15.4746C3.33398 16.1027 3.69272 16.5883 4.0881 16.9222C4.48736 17.2593 5.01568 17.5254 5.59558 17.7325C6.76265 18.1493 8.32016 18.3913 10.0007 18.3913C11.6812 18.3913 13.2387 18.1493 14.4057 17.7325C14.9857 17.5254 15.514 17.2593 15.9132 16.9222C16.3086 16.5883 16.6673 16.1027 16.6673 15.4746V13.8611C16.1329 14.2413 15.5337 14.5161 14.9663 14.7188C13.5763 15.2152 11.8205 15.4746 10.0007 15.4746C8.18085 15.4746 6.425 15.2152 5.03502 14.7188C4.46765 14.5161 3.8684 14.2413 3.33398 13.8611Z"
		fill="url(#paint0_linear_1225_21120)" style="" />
	<path fill-rule="evenodd" clip-rule="evenodd"
		d="M16.6673 4.64128V6.30794H16.6539C16.5854 6.83598 16.2637 7.25128 15.9132 7.54725C15.514 7.88437 14.9857 8.15043 14.4057 8.35753C13.2387 8.77436 11.6812 9.01628 10.0007 9.01628C8.32016 9.01628 6.76265 8.77436 5.59558 8.35753C5.01568 8.15043 4.48736 7.88437 4.0881 7.54725C3.73758 7.25128 3.41588 6.83598 3.34738 6.30794H3.33398V4.64128C3.33398 4.0132 3.69272 3.52749 4.0881 3.19363C4.48736 2.85652 5.01568 2.59046 5.59558 2.38335C6.76265 1.96654 8.32016 1.72461 10.0007 1.72461C11.6812 1.72461 13.2387 1.96654 14.4057 2.38335C14.9857 2.59046 15.514 2.85652 15.9132 3.19363C16.3086 3.52749 16.6673 4.0132 16.6673 4.64128ZM5.16336 4.46706C5.05933 4.55489 5.01999 4.61362 5.00593 4.64128C5.01999 4.66893 5.05933 4.72766 5.16336 4.81549C5.35447 4.97686 5.68043 5.15973 6.15614 5.32963C7.10032 5.66683 8.45948 5.89128 10.0007 5.89128C11.5418 5.89128 12.901 5.66683 13.8451 5.32963C14.3209 5.15973 14.6468 4.97686 14.838 4.81549C14.942 4.72766 14.9813 4.66893 14.9954 4.64128C14.9813 4.61362 14.942 4.55489 14.838 4.46706C14.6468 4.30569 14.3209 4.12282 13.8451 3.95292C12.901 3.61572 11.5418 3.39128 10.0007 3.39128C8.45948 3.39128 7.10032 3.61572 6.15614 3.95292C5.68043 4.12282 5.35447 4.30569 5.16336 4.46706ZM16.6673 9.27759C16.1329 9.65784 15.5337 9.93259 14.9663 10.1353C13.5763 10.6317 11.8205 10.8911 10.0007 10.8911C8.18085 10.8911 6.425 10.6317 5.03502 10.1353C4.46765 9.93259 3.8684 9.65784 3.33398 9.27759V10.8911C3.33398 11.5192 3.69272 12.0048 4.0881 12.3388C4.48736 12.6758 5.01568 12.9419 5.59558 13.149C6.76265 13.5658 8.32016 13.8078 10.0007 13.8078C11.6812 13.8078 13.2387 13.5658 14.4057 13.149C14.9857 12.9419 15.514 12.6758 15.9132 12.3388C16.3086 12.0048 16.6673 11.5192 16.6673 10.8911V9.27759ZM3.33398 13.8611V15.4746C3.33398 16.1027 3.69272 16.5883 4.0881 16.9222C4.48736 17.2593 5.01568 17.5254 5.59558 17.7325C6.76265 18.1493 8.32016 18.3913 10.0007 18.3913C11.6812 18.3913 13.2387 18.1493 14.4057 17.7325C14.9857 17.5254 15.514 17.2593 15.9132 16.9222C16.3086 16.5883 16.6673 16.1027 16.6673 15.4746V13.8611C16.1329 14.2413 15.5337 14.5161 14.9663 14.7188C13.5763 15.2152 11.8205 15.4746 10.0007 15.4746C8.18085 15.4746 6.425 15.2152 5.03502 14.7188C4.46765 14.5161 3.8684 14.2413 3.33398 13.8611Z"
		fill="url(#paint1_linear_1225_21120)" fill-opacity="0.75" style="mix-blend-mode:overlay" />
	<defs>
		<linearGradient id="paint0_linear_1225_21120" x1="3.33398" y1="10.0579" x2="15.6215" y2="13.6427"
			gradientUnits="userSpaceOnUse">
			<stop stop-color="#FF8763"
				style="stop-color:#FF8763;stop-color:color(display-p3 1.0000 0.5294 0.3882);stop-opacity:1;" />
			<stop offset="1" stop-color="#FE0291"
				style="stop-color:#FE0291;stop-color:color(display-p3 0.9961 0.0078 0.5678);stop-opacity:1;" />
		</linearGradient>
		<linearGradient id="paint1_linear_1225_21120" x1="10.9849" y1="11.7146" x2="5.91637" y2="10.7122"
			gradientUnits="userSpaceOnUse">
			<stop stop-color="white" stop-opacity="0" style="stop-color:none;stop-opacity:0;" />
			<stop offset="0.196137" stop-color="white" stop-opacity="0.8"
				style="stop-color:white;stop-opacity:0.8;" />
			<stop offset="0.368776" stop-color="white" style="stop-color:white;stop-opacity:1;" />
			<stop offset="0.877213" stop-color="white" stop-opacity="0"
				style="stop-color:none;stop-opacity:0;" />
		</linearGradient>
	</defs>
</svg>