<svg width="40" height="41" viewBox="0 0 40 41" fill="none" xmlns="http://www.w3.org/2000/svg">
<rect y="0.0976562" width="40" height="40" rx="20" fill="white" style="fill:white;fill-opacity:1;"/>
<rect y="0.0976562" width="40" height="40" rx="20" fill="url(#paint0_linear_1248_8297)" style=""/>
<rect x="0.5" y="0.597656" width="39" height="39" rx="19.5" stroke="white" stroke-opacity="0.32" style="stroke:white;stroke-opacity:0.32;"/>
<g filter="url(#filter0_d_1248_8297)">
<mask id="path-3-inside-1_1248_8297" fill="white">
<path fill-rule="evenodd" clip-rule="evenodd" d="M17 16.4309C17 14.7741 18.3431 13.4309 20 13.4309C21.6569 13.4309 23 14.7741 23 16.4309C23 18.0878 21.6569 19.4309 20 19.4309C18.3431 19.4309 17 18.0878 17 16.4309ZM14.6974 23.775C15.4913 21.6285 17.4464 20.0977 20.001 20.0977C22.5556 20.0977 24.5108 21.6285 25.3046 23.775C25.5316 24.3887 25.3762 24.9935 25.0154 25.4235C24.6638 25.8425 24.1211 26.0977 23.5364 26.0977H16.4656C15.8809 26.0977 15.3382 25.8425 14.9866 25.4235C14.6258 24.9935 14.4705 24.3887 14.6974 23.775Z"/>
</mask>
<path fill-rule="evenodd" clip-rule="evenodd" d="M17 16.4309C17 14.7741 18.3431 13.4309 20 13.4309C21.6569 13.4309 23 14.7741 23 16.4309C23 18.0878 21.6569 19.4309 20 19.4309C18.3431 19.4309 17 18.0878 17 16.4309ZM14.6974 23.775C15.4913 21.6285 17.4464 20.0977 20.001 20.0977C22.5556 20.0977 24.5108 21.6285 25.3046 23.775C25.5316 24.3887 25.3762 24.9935 25.0154 25.4235C24.6638 25.8425 24.1211 26.0977 23.5364 26.0977H16.4656C15.8809 26.0977 15.3382 25.8425 14.9866 25.4235C14.6258 24.9935 14.4705 24.3887 14.6974 23.775Z" fill="url(#paint1_linear_1248_8297)" style=""/>
<path d="M14.6974 23.775L14.2285 23.6016L14.2285 23.6016L14.6974 23.775ZM25.3046 23.775L25.7736 23.6016L25.7736 23.6016L25.3046 23.775ZM25.0154 25.4235L24.6324 25.102L24.6324 25.1021L25.0154 25.4235ZM14.9866 25.4235L15.3696 25.1021L15.3696 25.1021L14.9866 25.4235ZM20 12.9309C18.067 12.9309 16.5 14.4979 16.5 16.4309H17.5C17.5 15.0502 18.6193 13.9309 20 13.9309V12.9309ZM23.5 16.4309C23.5 14.4979 21.933 12.9309 20 12.9309V13.9309C21.3807 13.9309 22.5 15.0502 22.5 16.4309H23.5ZM20 19.9309C21.933 19.9309 23.5 18.3639 23.5 16.4309H22.5C22.5 17.8116 21.3807 18.9309 20 18.9309V19.9309ZM16.5 16.4309C16.5 18.3639 18.067 19.9309 20 19.9309V18.9309C18.6193 18.9309 17.5 17.8116 17.5 16.4309H16.5ZM20.001 19.5977C17.2258 19.5977 15.0909 21.2696 14.2285 23.6016L15.1664 23.9484C15.8917 21.9873 17.667 20.5977 20.001 20.5977V19.5977ZM25.7736 23.6016C24.9112 21.2696 22.7762 19.5977 20.001 19.5977V20.5977C22.3351 20.5977 24.1104 21.9873 24.8357 23.9484L25.7736 23.6016ZM25.3984 25.7449C25.8632 25.1911 26.0688 24.3998 25.7736 23.6016L24.8357 23.9484C24.9944 24.3775 24.8893 24.7959 24.6324 25.102L25.3984 25.7449ZM23.5364 26.5977C24.2649 26.5977 24.9493 26.2801 25.3985 25.7449L24.6324 25.1021C24.3784 25.4048 23.9773 25.5977 23.5364 25.5977V26.5977ZM16.4656 26.5977H23.5364V25.5977H16.4656V26.5977ZM14.6036 25.7448C15.0527 26.2801 15.7372 26.5977 16.4656 26.5977V25.5977C16.0247 25.5977 15.6237 25.4048 15.3696 25.1021L14.6036 25.7448ZM14.2285 23.6016C13.9332 24.3998 14.1389 25.1911 14.6036 25.7449L15.3696 25.1021C15.1127 24.7959 15.0077 24.3775 15.1664 23.9484L14.2285 23.6016Z" fill="white" style="fill:white;fill-opacity:1;" mask="url(#path-3-inside-1_1248_8297)"/>
</g>
<defs>
<filter id="filter0_d_1248_8297" x="10.5912" y="13.4309" width="18.8197" height="20.6667" filterUnits="userSpaceOnUse" color-interpolation-filters="sRGB">
<feFlood flood-opacity="0" result="BackgroundImageFix"/>
<feColorMatrix in="SourceAlpha" type="matrix" values="0 0 0 0 0 0 0 0 0 0 0 0 0 0 0 0 0 0 127 0" result="hardAlpha"/>
<feOffset dy="4"/>
<feGaussianBlur stdDeviation="2"/>
<feComposite in2="hardAlpha" operator="out"/>
<feColorMatrix type="matrix" values="0 0 0 0 0.791761 0 0 0 0 0.0274344 0 0 0 0 0.383111 0 0 0 1 0"/>
<feBlend mode="normal" in2="BackgroundImageFix" result="effect1_dropShadow_1248_8297"/>
<feBlend mode="normal" in="SourceGraphic" in2="effect1_dropShadow_1248_8297" result="shape"/>
</filter>
<linearGradient id="paint0_linear_1248_8297" x1="-7.29682e-07" y1="20.0977" x2="35.3049" y2="32.9724" gradientUnits="userSpaceOnUse">
<stop stop-color="#FF8763" style="stop-color:#FF8763;stop-color:color(display-p3 1.0000 0.5294 0.3882);stop-opacity:1;"/>
<stop offset="1" stop-color="#FE0291" style="stop-color:#FE0291;stop-color:color(display-p3 0.9961 0.0078 0.5678);stop-opacity:1;"/>
</linearGradient>
<linearGradient id="paint1_linear_1248_8297" x1="20.001" y1="13.4309" x2="20.001" y2="26.0977" gradientUnits="userSpaceOnUse">
<stop stop-color="white" style="stop-color:white;stop-opacity:1;"/>
<stop offset="1" stop-color="#FFA7CB" style="stop-color:#FFA7CB;stop-color:color(display-p3 0.9995 0.6567 0.7963);stop-opacity:1;"/>
</linearGradient>
</defs>
</svg>
