<svg width="41" height="41" viewBox="0 0 41 41" fill="none" xmlns="http://www.w3.org/2000/svg">
<rect x="0.666626" y="0.0976562" width="40" height="40" rx="20" fill="white" style="fill:white;fill-opacity:1;"/>
<rect x="0.666626" y="0.0976562" width="40" height="40" rx="20" fill="url(#paint0_linear_1248_8330)" style=""/>
<rect x="1.16663" y="0.597656" width="39" height="39" rx="19.5" stroke="white" stroke-opacity="0.32" style="stroke:white;stroke-opacity:0.32;"/>
<g filter="url(#filter0_d_1248_8330)">
<path fill-rule="evenodd" clip-rule="evenodd" d="M25.6095 20.0976L20.6666 15.1549L21.5856 14.2359C22.3666 13.4549 23.633 13.4549 24.414 14.2359L26.5284 16.3503C27.3094 17.1314 27.3094 18.3977 26.5284 19.1788L25.6095 20.0976ZM19.4551 15.8289L24.9354 21.3089L24.2135 23.2941C23.9768 23.9451 23.42 24.4273 22.7418 24.5686L15.6625 26.0435L19.0454 22.6605C19.234 22.7347 19.4394 22.7753 19.6544 22.7753C20.5749 22.7753 21.3211 22.0291 21.3211 21.1087C21.3211 20.1882 20.5749 19.442 19.6544 19.442C18.7339 19.442 17.9877 20.1882 17.9877 21.1087C17.9877 21.3237 18.0284 21.5291 18.1025 21.7177L14.7213 25.099L16.1956 18.0224C16.3369 17.3442 16.8191 16.7874 17.4701 16.5507L19.4551 15.8289Z" fill="url(#paint1_linear_1248_8330)" style=""/>
<path d="M20.6666 15.1549L20.4898 14.9781C20.4429 15.025 20.4166 15.0886 20.4166 15.1549C20.4166 15.2212 20.4429 15.2848 20.4898 15.3317L20.6666 15.1549ZM25.6095 20.0976L25.4327 20.2744C25.5304 20.372 25.6886 20.372 25.7863 20.2744L25.6095 20.0976ZM21.5856 14.2359L21.4088 14.0592L21.4088 14.0592L21.5856 14.2359ZM24.414 14.2359L24.2372 14.4127L24.2372 14.4127L24.414 14.2359ZM26.5284 16.3503L26.3516 16.5271L26.3516 16.5271L26.5284 16.3503ZM26.5284 19.1788L26.7051 19.3555V19.3555L26.5284 19.1788ZM24.9354 21.3089L25.1704 21.3944C25.2036 21.3031 25.1809 21.2008 25.1122 21.1321L24.9354 21.3089ZM19.4551 15.8289L19.6319 15.6521C19.5632 15.5834 19.4609 15.5607 19.3697 15.5939L19.4551 15.8289ZM24.2135 23.2941L23.9785 23.2086L23.9785 23.2086L24.2135 23.2941ZM22.7418 24.5686L22.7928 24.8133L22.7928 24.8133L22.7418 24.5686ZM15.6625 26.0435L15.4857 25.8667C15.4075 25.9448 15.39 26.0651 15.4425 26.1623C15.4951 26.2596 15.6053 26.3107 15.7135 26.2882L15.6625 26.0435ZM19.0454 22.6605L19.1368 22.4278C19.0442 22.3915 18.9389 22.4134 18.8686 22.4837L19.0454 22.6605ZM18.1025 21.7177L18.2793 21.8945C18.3496 21.8242 18.3716 21.7189 18.3352 21.6263L18.1025 21.7177ZM14.7213 25.099L14.4766 25.048C14.454 25.1562 14.5052 25.2664 14.6025 25.3189C14.6997 25.3715 14.8199 25.3539 14.8981 25.2758L14.7213 25.099ZM16.1956 18.0224L15.9509 17.9714H15.9509L16.1956 18.0224ZM17.4701 16.5507L17.5555 16.7856L17.5555 16.7856L17.4701 16.5507ZM20.4898 15.3317L25.4327 20.2744L25.7863 19.9208L20.8433 14.9781L20.4898 15.3317ZM21.4088 14.0592L20.4898 14.9781L20.8433 15.3317L21.7623 14.4127L21.4088 14.0592ZM24.5907 14.0592C23.7121 13.1805 22.2875 13.1805 21.4088 14.0592L21.7623 14.4127C22.4458 13.7293 23.5538 13.7293 24.2372 14.4127L24.5907 14.0592ZM26.7051 16.1735L24.5907 14.0592L24.2372 14.4127L26.3516 16.5271L26.7051 16.1735ZM26.7051 19.3555C27.5838 18.4768 27.5838 17.0522 26.7051 16.1735L26.3516 16.5271C27.035 17.2105 27.035 18.3185 26.3516 19.002L26.7051 19.3555ZM25.7863 20.2744L26.7051 19.3555L26.3516 19.002L25.4327 19.9208L25.7863 20.2744ZM25.1122 21.1321L19.6319 15.6521L19.2783 16.0056L24.7587 21.4857L25.1122 21.1321ZM24.4484 23.3795L25.1704 21.3944L24.7005 21.2235L23.9785 23.2086L24.4484 23.3795ZM22.7928 24.8133C23.5558 24.6543 24.1821 24.1119 24.4484 23.3795L23.9785 23.2086C23.7714 23.7783 23.2843 24.2002 22.6908 24.3238L22.7928 24.8133ZM15.7135 26.2882L22.7928 24.8133L22.6908 24.3238L15.6115 25.7987L15.7135 26.2882ZM18.8686 22.4837L15.4857 25.8667L15.8393 26.2202L19.2221 22.8373L18.8686 22.4837ZM19.6544 22.5253C19.4712 22.5253 19.2968 22.4907 19.1368 22.4278L18.9539 22.8932C19.1713 22.9786 19.4077 23.0253 19.6544 23.0253V22.5253ZM21.0711 21.1087C21.0711 21.8911 20.4368 22.5253 19.6544 22.5253V23.0253C20.713 23.0253 21.5711 22.1672 21.5711 21.1087H21.0711ZM19.6544 19.692C20.4368 19.692 21.0711 20.3263 21.0711 21.1087H21.5711C21.5711 20.0501 20.713 19.192 19.6544 19.192V19.692ZM18.2377 21.1087C18.2377 20.3263 18.872 19.692 19.6544 19.692V19.192C18.5959 19.192 17.7377 20.0501 17.7377 21.1087H18.2377ZM18.3352 21.6263C18.2724 21.4663 18.2377 21.2919 18.2377 21.1087H17.7377C17.7377 21.3555 17.7845 21.5918 17.8698 21.8091L18.3352 21.6263ZM14.8981 25.2758L18.2793 21.8945L17.9258 21.5409L14.5445 24.9222L14.8981 25.2758ZM15.9509 17.9714L14.4766 25.048L14.9661 25.15L16.4404 18.0733L15.9509 17.9714ZM17.3847 16.3157C16.6522 16.582 16.1098 17.2084 15.9509 17.9714L16.4404 18.0733C16.564 17.4799 16.9859 16.9928 17.5555 16.7856L17.3847 16.3157ZM19.3697 15.5939L17.3847 16.3157L17.5555 16.7856L19.5405 16.0638L19.3697 15.5939Z" fill="white" style="fill:white;fill-opacity:1;"/>
</g>
<defs>
<filter id="filter0_d_1248_8330" x="10.4713" y="13.4001" width="20.8928" height="20.8933" filterUnits="userSpaceOnUse" color-interpolation-filters="sRGB">
<feFlood flood-opacity="0" result="BackgroundImageFix"/>
<feColorMatrix in="SourceAlpha" type="matrix" values="0 0 0 0 0 0 0 0 0 0 0 0 0 0 0 0 0 0 127 0" result="hardAlpha"/>
<feOffset dy="4"/>
<feGaussianBlur stdDeviation="2"/>
<feComposite in2="hardAlpha" operator="out"/>
<feColorMatrix type="matrix" values="0 0 0 0 0.791761 0 0 0 0 0.0274344 0 0 0 0 0.383111 0 0 0 1 0"/>
<feBlend mode="normal" in2="BackgroundImageFix" result="effect1_dropShadow_1248_8330"/>
<feBlend mode="normal" in="SourceGraphic" in2="effect1_dropShadow_1248_8330" result="shape"/>
</filter>
<linearGradient id="paint0_linear_1248_8330" x1="0.666625" y1="20.0977" x2="35.9716" y2="32.9724" gradientUnits="userSpaceOnUse">
<stop stop-color="#FF8763" style="stop-color:#FF8763;stop-color:color(display-p3 1.0000 0.5294 0.3882);stop-opacity:1;"/>
<stop offset="1" stop-color="#FE0291" style="stop-color:#FE0291;stop-color:color(display-p3 0.9961 0.0078 0.5678);stop-opacity:1;"/>
</linearGradient>
<linearGradient id="paint1_linear_1248_8330" x1="20.9177" y1="13.6501" x2="20.9177" y2="26.0435" gradientUnits="userSpaceOnUse">
<stop stop-color="white" style="stop-color:white;stop-opacity:1;"/>
<stop offset="1" stop-color="#FFA7CB" style="stop-color:#FFA7CB;stop-color:color(display-p3 0.9995 0.6567 0.7963);stop-opacity:1;"/>
</linearGradient>
</defs>
</svg>
