<svg width="16" height="17" viewBox="0 0 16 17" fill="none" xmlns="http://www.w3.org/2000/svg">
<path fill-rule="evenodd" clip-rule="evenodd" d="M7.74317 4.01847C7.36003 3.43221 7.4259 2.63835 7.94078 2.12347C8.53119 1.53306 9.48843 1.53306 10.0788 2.12347L14.069 6.11366C14.6594 6.70408 14.6594 7.66132 14.069 8.25173C13.553 8.76774 12.7568 8.83277 12.1702 8.44681L10.1643 12.6797C9.92218 13.1906 9.4375 13.544 8.87697 13.6182L2.15602 14.5081L5.98944 10.6746C6.18795 10.7919 6.41951 10.8593 6.6668 10.8593C7.40318 10.8593 8.00013 10.2623 8.00013 9.52592C8.00013 8.78955 7.40318 8.19259 6.6668 8.19259C5.93042 8.19259 5.33346 8.78955 5.33346 9.52592C5.33346 9.77318 5.40077 10.0047 5.51805 10.2032L1.68359 14.0377L2.52987 7.28648C2.60149 6.71505 2.96305 6.22109 3.4861 5.98008L7.74317 4.01847ZM13.5976 7.78033C13.2676 8.11039 12.7324 8.11039 12.4024 7.78033L12.2988 7.67677C12.2969 7.67478 12.295 7.6728 12.293 7.67084L8.5218 3.89961C8.51984 3.89765 8.51786 3.89572 8.51586 3.89382L8.41218 3.79014C8.08212 3.46007 8.08212 2.92494 8.41218 2.59488C8.74224 2.26482 9.27738 2.26482 9.60744 2.59488L13.5976 6.58507C13.9277 6.91513 13.9277 7.45027 13.5976 7.78033Z" fill="url(#paint0_linear_1_4225)" stroke="white" stroke-opacity="0.12"/>
<defs>
<linearGradient id="paint0_linear_1_4225" x1="1.68359" y1="8.09438" x2="13.0059" y2="12.2236" gradientUnits="userSpaceOnUse">
<stop stop-color="#FF8763"/>
<stop offset="1" stop-color="#FE0291"/>
</linearGradient>
</defs>
</svg>
