<svg width="16" height="17" viewBox="0 0 16 17" fill="none" xmlns="http://www.w3.org/2000/svg">
<path d="M2.3064 4.76433C2.3064 3.27741 3.51178 2.07202 4.9987 2.07202C6.48562 2.07202 7.69101 3.27741 7.69101 4.76433C7.69101 6.25125 6.48562 7.45664 4.9987 7.45664C3.51178 7.45664 2.3064 6.25125 2.3064 4.76433Z" fill="url(#paint0_linear_1_4218)"/>
<path d="M8.33341 4.76432C8.33341 3.29156 9.52732 2.09766 11.0001 2.09766C12.4728 2.09766 13.6667 3.29156 13.6667 4.76432C13.6667 6.23708 12.4728 7.43099 11.0001 7.43099C9.52732 7.43099 8.33341 6.23708 8.33341 4.76432Z" fill="url(#paint1_linear_1_4218)"/>
<path d="M8.50301 9.21792C9.20949 9.93981 9.76316 10.9087 10.0726 12.098C10.2842 12.911 10.0135 13.6168 9.52064 14.0977H13.9003C14.8445 14.0977 15.6884 13.2689 15.4274 12.2659C14.7629 9.712 12.9071 8.37687 10.9988 8.37687C10.1184 8.37687 9.24922 8.66103 8.50301 9.21792Z" fill="url(#paint2_linear_1_4218)"/>
<path d="M4.99891 8.37687C6.9072 8.37687 8.76301 9.712 9.42757 12.2659C9.68857 13.2689 8.84468 14.0977 7.9004 14.0977H2.09743C1.15315 14.0977 0.309264 13.2689 0.570262 12.2659C1.23481 9.712 3.09063 8.37687 4.99891 8.37687Z" fill="url(#paint3_linear_1_4218)"/>
<path d="M2.3064 4.76433C2.3064 3.27741 3.51178 2.07202 4.9987 2.07202C6.48562 2.07202 7.69101 3.27741 7.69101 4.76433C7.69101 6.25125 6.48562 7.45664 4.9987 7.45664C3.51178 7.45664 2.3064 6.25125 2.3064 4.76433Z" stroke="white" stroke-opacity="0.12"/>
<path d="M8.33341 4.76432C8.33341 3.29156 9.52732 2.09766 11.0001 2.09766C12.4728 2.09766 13.6667 3.29156 13.6667 4.76432C13.6667 6.23708 12.4728 7.43099 11.0001 7.43099C9.52732 7.43099 8.33341 6.23708 8.33341 4.76432Z" stroke="white" stroke-opacity="0.12"/>
<path d="M8.50301 9.21792C9.20949 9.93981 9.76316 10.9087 10.0726 12.098C10.2842 12.911 10.0135 13.6168 9.52064 14.0977H13.9003C14.8445 14.0977 15.6884 13.2689 15.4274 12.2659C14.7629 9.712 12.9071 8.37687 10.9988 8.37687C10.1184 8.37687 9.24922 8.66103 8.50301 9.21792Z" stroke="white" stroke-opacity="0.12"/>
<path d="M4.99891 8.37687C6.9072 8.37687 8.76301 9.712 9.42757 12.2659C9.68857 13.2689 8.84468 14.0977 7.9004 14.0977H2.09743C1.15315 14.0977 0.309264 13.2689 0.570262 12.2659C1.23481 9.712 3.09063 8.37687 4.99891 8.37687Z" stroke="white" stroke-opacity="0.12"/>
<defs>
<linearGradient id="paint0_linear_1_4218" x1="0.522217" y1="8.08485" x2="12.9252" y2="13.709" gradientUnits="userSpaceOnUse">
<stop stop-color="#FF8763"/>
<stop offset="1" stop-color="#FE0291"/>
</linearGradient>
<linearGradient id="paint1_linear_1_4218" x1="0.522217" y1="8.08485" x2="12.9252" y2="13.709" gradientUnits="userSpaceOnUse">
<stop stop-color="#FF8763"/>
<stop offset="1" stop-color="#FE0291"/>
</linearGradient>
<linearGradient id="paint2_linear_1_4218" x1="0.522217" y1="8.08485" x2="12.9252" y2="13.709" gradientUnits="userSpaceOnUse">
<stop stop-color="#FF8763"/>
<stop offset="1" stop-color="#FE0291"/>
</linearGradient>
<linearGradient id="paint3_linear_1_4218" x1="0.522217" y1="8.08485" x2="12.9252" y2="13.709" gradientUnits="userSpaceOnUse">
<stop stop-color="#FF8763"/>
<stop offset="1" stop-color="#FE0291"/>
</linearGradient>
</defs>
</svg>
