<svg width="41" height="41" viewBox="0 0 41 41" fill="none" xmlns="http://www.w3.org/2000/svg">
<rect x="0.333374" y="0.0976562" width="40" height="40" rx="20" fill="white" style="fill:white;fill-opacity:1;"/>
<rect x="0.333374" y="0.0976562" width="40" height="40" rx="20" fill="url(#paint0_linear_1248_8295)" style=""/>
<rect x="0.833374" y="0.597656" width="39" height="39" rx="19.5" stroke="white" stroke-opacity="0.32" style="stroke:white;stroke-opacity:0.32;"/>
<g filter="url(#filter0_d_1248_8295)">
<mask id="path-3-inside-1_1248_8295" fill="white">
<path fill-rule="evenodd" clip-rule="evenodd" d="M23.1667 13.7643C23.1667 13.3961 22.8682 13.0977 22.5 13.0977C22.1318 13.0977 21.8334 13.3961 21.8334 13.7643V26.431C21.8334 26.7992 22.1318 27.0977 22.5 27.0977C22.8682 27.0977 23.1667 26.7992 23.1667 26.431V25.431H24.5C25.6046 25.431 26.5 24.5356 26.5 23.431V16.7643C26.5 15.6598 25.6046 14.7643 24.5 14.7643H23.1667V13.7643ZM15.1667 14.7644C14.0621 14.7644 13.1667 15.6598 13.1667 16.7644V23.4311C13.1667 24.5357 14.0621 25.4311 15.1667 25.4311H20.5V14.7644H15.1667ZM16.0286 17.9597C16.289 17.6993 16.7111 17.6993 16.9714 17.9597L18.6381 19.6263C18.8984 19.8867 18.8984 20.3088 18.6381 20.5691L16.9714 22.2358C16.7111 22.4961 16.289 22.4961 16.0286 22.2358C15.7683 21.9755 15.7683 21.5533 16.0286 21.293L17.2239 20.0977L16.0286 18.9025C15.7683 18.6421 15.7683 18.22 16.0286 17.9597Z"/>
</mask>
<path fill-rule="evenodd" clip-rule="evenodd" d="M23.1667 13.7643C23.1667 13.3961 22.8682 13.0977 22.5 13.0977C22.1318 13.0977 21.8334 13.3961 21.8334 13.7643V26.431C21.8334 26.7992 22.1318 27.0977 22.5 27.0977C22.8682 27.0977 23.1667 26.7992 23.1667 26.431V25.431H24.5C25.6046 25.431 26.5 24.5356 26.5 23.431V16.7643C26.5 15.6598 25.6046 14.7643 24.5 14.7643H23.1667V13.7643ZM15.1667 14.7644C14.0621 14.7644 13.1667 15.6598 13.1667 16.7644V23.4311C13.1667 24.5357 14.0621 25.4311 15.1667 25.4311H20.5V14.7644H15.1667ZM16.0286 17.9597C16.289 17.6993 16.7111 17.6993 16.9714 17.9597L18.6381 19.6263C18.8984 19.8867 18.8984 20.3088 18.6381 20.5691L16.9714 22.2358C16.7111 22.4961 16.289 22.4961 16.0286 22.2358C15.7683 21.9755 15.7683 21.5533 16.0286 21.293L17.2239 20.0977L16.0286 18.9025C15.7683 18.6421 15.7683 18.22 16.0286 17.9597Z" fill="url(#paint1_linear_1248_8295)" style=""/>
<path d="M23.1667 25.431V24.931C22.8906 24.931 22.6667 25.1548 22.6667 25.431H23.1667ZM23.1667 14.7643H22.6667C22.6667 15.0405 22.8906 15.2643 23.1667 15.2643V14.7643ZM20.5 25.4311V25.9311C20.7762 25.9311 21 25.7072 21 25.4311H20.5ZM20.5 14.7644H21C21 14.4883 20.7762 14.2644 20.5 14.2644V14.7644ZM16.9714 17.9597L17.325 17.6061L17.325 17.6061L16.9714 17.9597ZM16.0286 17.9597L15.6751 17.6061L15.6751 17.6061L16.0286 17.9597ZM18.6381 19.6263L18.2845 19.9799L18.2845 19.9799L18.6381 19.6263ZM18.6381 20.5691L18.2845 20.2156L18.2845 20.2156L18.6381 20.5691ZM16.9714 22.2358L17.325 22.5894L17.325 22.5894L16.9714 22.2358ZM16.0286 22.2358L15.6751 22.5894L15.6751 22.5894L16.0286 22.2358ZM16.0286 21.293L16.3822 21.6466L16.3822 21.6466L16.0286 21.293ZM17.2239 20.0977L17.5774 20.4513C17.7727 20.256 17.7727 19.9394 17.5774 19.7442L17.2239 20.0977ZM16.0286 18.9025L15.6751 19.256L16.0286 18.9025ZM22.5 13.5977C22.5921 13.5977 22.6667 13.6723 22.6667 13.7643H23.6667C23.6667 13.12 23.1444 12.5977 22.5 12.5977V13.5977ZM22.3334 13.7643C22.3334 13.6723 22.408 13.5977 22.5 13.5977V12.5977C21.8557 12.5977 21.3334 13.12 21.3334 13.7643H22.3334ZM22.3334 26.431V13.7643H21.3334V26.431H22.3334ZM22.5 26.5977C22.408 26.5977 22.3334 26.523 22.3334 26.431H21.3334C21.3334 27.0753 21.8557 27.5977 22.5 27.5977V26.5977ZM22.6667 26.431C22.6667 26.523 22.5921 26.5977 22.5 26.5977V27.5977C23.1444 27.5977 23.6667 27.0753 23.6667 26.431H22.6667ZM22.6667 25.431V26.431H23.6667V25.431H22.6667ZM24.5 24.931H23.1667V25.931H24.5V24.931ZM26 23.431C26 24.2594 25.3285 24.931 24.5 24.931V25.931C25.8808 25.931 27 24.8117 27 23.431H26ZM26 16.7643V23.431H27V16.7643H26ZM24.5 15.2643C25.3285 15.2643 26 15.9359 26 16.7643H27C27 15.3836 25.8808 14.2643 24.5 14.2643V15.2643ZM23.1667 15.2643H24.5V14.2643H23.1667V15.2643ZM22.6667 13.7643V14.7643H23.6667V13.7643H22.6667ZM13.6667 16.7644C13.6667 15.936 14.3383 15.2644 15.1667 15.2644V14.2644C13.786 14.2644 12.6667 15.3837 12.6667 16.7644H13.6667ZM13.6667 23.4311V16.7644H12.6667V23.4311H13.6667ZM15.1667 24.9311C14.3383 24.9311 13.6667 24.2595 13.6667 23.4311H12.6667C12.6667 24.8118 13.786 25.9311 15.1667 25.9311V24.9311ZM20.5 24.9311H15.1667V25.9311H20.5V24.9311ZM20 14.7644V25.4311H21V14.7644H20ZM15.1667 15.2644H20.5V14.2644H15.1667V15.2644ZM17.325 17.6061C16.8694 17.1505 16.1307 17.1505 15.6751 17.6061L16.3822 18.3132C16.4473 18.2481 16.5528 18.2481 16.6179 18.3132L17.325 17.6061ZM18.9916 19.2728L17.325 17.6061L16.6179 18.3132L18.2845 19.9799L18.9916 19.2728ZM18.9916 20.9227C19.4472 20.4671 19.4472 19.7284 18.9916 19.2728L18.2845 19.9799C18.3496 20.045 18.3496 20.1505 18.2845 20.2156L18.9916 20.9227ZM17.325 22.5894L18.9916 20.9227L18.2845 20.2156L16.6179 21.8823L17.325 22.5894ZM15.6751 22.5894C16.1307 23.0449 16.8694 23.0449 17.325 22.5894L16.6179 21.8822C16.5528 21.9473 16.4472 21.9473 16.3822 21.8822L15.6751 22.5894ZM15.6751 20.9394C15.2194 21.395 15.2194 22.1338 15.6751 22.5894L16.3822 21.8822C16.3171 21.8172 16.3171 21.7116 16.3822 21.6466L15.6751 20.9394ZM16.8703 19.7442L15.6751 20.9395L16.3822 21.6466L17.5774 20.4513L16.8703 19.7442ZM15.6751 19.256L16.8703 20.4513L17.5774 19.7442L16.3822 18.5489L15.6751 19.256ZM15.6751 17.6061C15.2195 18.0617 15.2194 18.8004 15.6751 19.256L16.3822 18.5489C16.3171 18.4838 16.3171 18.3783 16.3822 18.3132L15.6751 17.6061Z" fill="white" style="fill:white;fill-opacity:1;" mask="url(#path-3-inside-1_1248_8295)"/>
</g>
<defs>
<filter id="filter0_d_1248_8295" x="9.16669" y="13.0977" width="21.3333" height="22" filterUnits="userSpaceOnUse" color-interpolation-filters="sRGB">
<feFlood flood-opacity="0" result="BackgroundImageFix"/>
<feColorMatrix in="SourceAlpha" type="matrix" values="0 0 0 0 0 0 0 0 0 0 0 0 0 0 0 0 0 0 127 0" result="hardAlpha"/>
<feOffset dy="4"/>
<feGaussianBlur stdDeviation="2"/>
<feComposite in2="hardAlpha" operator="out"/>
<feColorMatrix type="matrix" values="0 0 0 0 0.791761 0 0 0 0 0.0274344 0 0 0 0 0.383111 0 0 0 1 0"/>
<feBlend mode="normal" in2="BackgroundImageFix" result="effect1_dropShadow_1248_8295"/>
<feBlend mode="normal" in="SourceGraphic" in2="effect1_dropShadow_1248_8295" result="shape"/>
</filter>
<linearGradient id="paint0_linear_1248_8295" x1="0.333373" y1="20.0977" x2="35.6383" y2="32.9724" gradientUnits="userSpaceOnUse">
<stop stop-color="#FF8763" style="stop-color:#FF8763;stop-color:color(display-p3 1.0000 0.5294 0.3882);stop-opacity:1;"/>
<stop offset="1" stop-color="#FE0291" style="stop-color:#FE0291;stop-color:color(display-p3 0.9961 0.0078 0.5678);stop-opacity:1;"/>
</linearGradient>
<linearGradient id="paint1_linear_1248_8295" x1="19.8334" y1="13.0977" x2="19.8334" y2="27.0977" gradientUnits="userSpaceOnUse">
<stop stop-color="white" style="stop-color:white;stop-opacity:1;"/>
<stop offset="1" stop-color="#FFA7CB" style="stop-color:#FFA7CB;stop-color:color(display-p3 0.9995 0.6567 0.7963);stop-opacity:1;"/>
</linearGradient>
</defs>
</svg>
