<svg width="40" height="41" viewBox="0 0 40 41" fill="none" xmlns="http://www.w3.org/2000/svg">
	<rect y="0.0976562" width="40" height="40" rx="20" fill="white" style="fill:white;fill-opacity:1;" />
	<rect y="0.0976562" width="40" height="40" rx="20" fill="url(#paint0_linear_362_816)" style="" />
	<rect x="0.5" y="0.597656" width="39" height="39" rx="19.5" stroke="white" stroke-opacity="0.32"
		style="stroke:white;stroke-opacity:0.32;" />
	<g filter="url(#filter0_d_362_816)">
		<path fill-rule="evenodd" clip-rule="evenodd"
			d="M10.8334 14.431C10.8334 13.9708 11.2065 13.5977 11.6667 13.5977H28.3334C28.7936 13.5977 29.1667 13.9708 29.1667 14.431C29.1667 14.8912 28.7936 15.2643 28.3334 15.2643H27.5V23.5977C27.5 24.9784 26.3808 26.0977 25 26.0977H21.5571L22.3601 27.3021C22.6154 27.685 22.5119 28.2024 22.129 28.4577C21.746 28.713 21.2286 28.6095 20.9733 28.2266L20 26.7667L19.0268 28.2266C18.7715 28.6095 18.2541 28.713 17.8711 28.4577C17.4882 28.2024 17.3847 27.685 17.64 27.3021L18.443 26.0977H15C13.6193 26.0977 12.5 24.9784 12.5 23.5977V15.2643H11.6667C11.2065 15.2643 10.8334 14.8912 10.8334 14.431ZM20.8334 17.7643C20.8334 17.3041 20.4603 16.931 20 16.931C19.5398 16.931 19.1667 17.3041 19.1667 17.7643V21.931C19.1667 22.3912 19.5398 22.7643 20 22.7643C20.4603 22.7643 20.8334 22.3912 20.8334 21.931V17.7643ZM24.1667 19.431C24.1667 18.9708 23.7936 18.5977 23.3334 18.5977C22.8731 18.5977 22.5 18.9708 22.5 19.431V21.931C22.5 22.3912 22.8731 22.7643 23.3334 22.7643C23.7936 22.7643 24.1667 22.3912 24.1667 21.931V19.431ZM17.5 21.0977C17.5 20.6374 17.1269 20.2643 16.6667 20.2643C16.2065 20.2643 15.8334 20.6374 15.8334 21.0977V21.931C15.8334 22.3912 16.2065 22.7643 16.6667 22.7643C17.1269 22.7643 17.5 22.3912 17.5 21.931V21.0977Z"
			fill="url(#paint1_linear_362_816)" style="" />
		<path d="M27.25 15.2643C27.25 15.1263 27.362 15.0143 27.5 15.0143H28.3334C28.6556 15.0143 28.9167 14.7532 28.9167 14.431C28.9167 14.1088 28.6556 13.8477 28.3334 13.8477H11.6667C11.3445 13.8477 11.0834 14.1088 11.0834 14.431C11.0834 14.7532 11.3445 15.0143 11.6667 15.0143H12.5C12.6381 15.0143 12.75 15.1263 12.75 15.2643V23.5977C12.75 24.8403 13.7574 25.8477 15 25.8477H18.443C18.5352 25.8477 18.6199 25.8984 18.6634 25.9797C18.7069 26.061 18.7021 26.1596 18.651 26.2363L17.848 27.4407L17.64 27.3021L17.848 27.4408C17.6693 27.7088 17.7417 28.071 18.0098 28.2497C18.2778 28.4284 18.64 28.356 18.8188 28.0879L19.792 26.628C19.8384 26.5584 19.9165 26.5167 20 26.5167C20.0836 26.5167 20.1617 26.5584 20.2081 26.628L21.1813 28.0879C21.36 28.3559 21.7222 28.4284 21.9903 28.2497L27.25 15.2643ZM27.25 15.2643V23.5977C27.25 24.8403 26.2427 25.8477 25 25.8477H21.5571C21.4649 25.8477 21.3802 25.8984 21.3367 25.9797M27.25 15.2643L21.3367 25.9797M21.3367 25.9797C21.2932 26.061 21.298 26.1596 21.3491 26.2363M21.3367 25.9797L21.3491 26.2363M21.3491 26.2363L22.1521 27.4407M21.3491 26.2363L22.1521 27.4407M22.1521 27.4407C22.1521 27.4407 22.1521 27.4407 22.1521 27.4408M22.1521 27.4407L22.1521 27.4408M22.1521 27.4408C22.3308 27.7088 22.2583 28.071 21.9903 28.2497L22.1521 27.4408ZM21.0834 17.7643C21.0834 17.166 20.5984 16.681 20 16.681C19.4017 16.681 18.9167 17.166 18.9167 17.7643V21.931C18.9167 22.5293 19.4017 23.0143 20 23.0143C20.5984 23.0143 21.0834 22.5293 21.0834 21.931V17.7643ZM24.4167 19.431C24.4167 18.8327 23.9317 18.3477 23.3334 18.3477C22.7351 18.3477 22.25 18.8327 22.25 19.431V21.931C22.25 22.5293 22.7351 23.0143 23.3334 23.0143C23.9317 23.0143 24.4167 22.5293 24.4167 21.931V19.431ZM17.75 21.0977C17.75 20.4993 17.265 20.0143 16.6667 20.0143C16.0684 20.0143 15.5834 20.4993 15.5834 21.0977V21.931C15.5834 22.5293 16.0684 23.0143 16.6667 23.0143C17.265 23.0143 17.75 22.5293 17.75 21.931V21.0977Z"
			stroke="white" style="stroke:white;stroke-opacity:1;" stroke-width="0.5"
			stroke-linejoin="round" />
	</g>
	<defs>
		<filter id="filter0_d_362_816" x="6.83337" y="13.5977" width="26.3334" height="23"
			filterUnits="userSpaceOnUse" color-interpolation-filters="sRGB">
			<feFlood flood-opacity="0" result="BackgroundImageFix" />
			<feColorMatrix in="SourceAlpha" type="matrix" values="0 0 0 0 0 0 0 0 0 0 0 0 0 0 0 0 0 0 127 0"
				result="hardAlpha" />
			<feOffset dy="4" />
			<feGaussianBlur stdDeviation="2" />
			<feComposite in2="hardAlpha" operator="out" />
			<feColorMatrix type="matrix"
				values="0 0 0 0 0.791761 0 0 0 0 0.0274344 0 0 0 0 0.383111 0 0 0 1 0" />
			<feBlend mode="normal" in2="BackgroundImageFix" result="effect1_dropShadow_362_816" />
			<feBlend mode="normal" in="SourceGraphic" in2="effect1_dropShadow_362_816" result="shape" />
		</filter>
		<linearGradient id="paint0_linear_362_816" x1="-7.29682e-07" y1="20.0977" x2="35.3049" y2="32.9724"
			gradientUnits="userSpaceOnUse">
			<stop stop-color="#FF8763"
				style="stop-color:#FF8763;stop-color:color(display-p3 1.0000 0.5294 0.3882);stop-opacity:1;" />
			<stop offset="1" stop-color="#FE0291"
				style="stop-color:#FE0291;stop-color:color(display-p3 0.9961 0.0078 0.5678);stop-opacity:1;" />
		</linearGradient>
		<linearGradient id="paint1_linear_362_816" x1="20" y1="13.5977" x2="20" y2="28.5977"
			gradientUnits="userSpaceOnUse">
			<stop stop-color="white" style="stop-color:white;stop-opacity:1;" />
			<stop offset="1" stop-color="#FFA7CB"
				style="stop-color:#FFA7CB;stop-color:color(display-p3 0.9995 0.6567 0.7963);stop-opacity:1;" />
		</linearGradient>
	</defs>
</svg>