<svg width="40" height="41" viewBox="0 0 40 41" fill="none" xmlns="http://www.w3.org/2000/svg">
	<rect y="0.0976562" width="40" height="40" rx="20" fill="white" />
	<rect y="0.0976562" width="40" height="40" rx="20" fill="url(#paint0_linear_362_816)" />
	<rect x="0.5" y="0.597656" width="39" height="39" rx="19.5" stroke="white" stroke-opacity="0.32" />
	<g filter="url(#filter0_d_362_816)">
		<path fill-rule="evenodd" clip-rule="evenodd"
			d="M10.833 14.431c0-.46.374-.833.834-.833h16.667c.46 0 .833.373.833.833s-.373.833-.833.833H27.5v8.333c0 1.381-1.119 2.5-2.5 2.5h-3.443l1.203 1.805c.256.383.152.9-.23 1.156-.383.256-.9.152-1.156-.23l-1.374-2.07-1.374 2.07c-.256.382-.773.486-1.156.23-.383-.256-.487-.773-.23-1.156l1.203-1.805H15c-1.381 0-2.5-1.119-2.5-2.5V15.264h-.833c-.46 0-.834-.373-.834-.833zm9.167 3.333c0-.46-.373-.833-.833-.833s-.833.373-.833.833v4.167c0 .46.373.833.833.833s.833-.373.833-.833v-4.167zm3.333 1.667c0-.46-.373-.833-.833-.833s-.833.373-.833.833v2.5c0 .46.373.833.833.833s.833-.373.833-.833v-2.5zm-6.667 1.667c0-.46-.374-.833-.834-.833s-.833.373-.833.833v.833c0 .46.373.833.833.833s.834-.373.834-.833v-.833z"
			fill="url(#paint1_linear_362_816)" />
	</g>
	<defs>
		<filter id="filter0_d_362_816" x="6.833" y="13.598" width="26.333" height="23"
			filterUnits="userSpaceOnUse" color-interpolation-filters="sRGB">
			<feFlood flood-opacity="0" result="BackgroundImageFix" />
			<feColorMatrix in="SourceAlpha" type="matrix" values="0 0 0 0 0 0 0 0 0 0 0 0 0 0 0 0 0 0 127 0"
				result="hardAlpha" />
			<feOffset dy="4" />
			<feGaussianBlur stdDeviation="2" />
			<feComposite in2="hardAlpha" operator="out" />
			<feColorMatrix type="matrix"
				values="0 0 0 0 0.791761 0 0 0 0 0.0274344 0 0 0 0 0.383111 0 0 0 1 0" />
			<feBlend mode="normal" in2="BackgroundImageFix" result="effect1_dropShadow_362_816" />
			<feBlend mode="normal" in="SourceGraphic" in2="effect1_dropShadow_362_816" result="shape" />
		</filter>
		<linearGradient id="paint0_linear_362_816" x1="0" y1="20.0977" x2="35.3049" y2="32.9724"
			gradientUnits="userSpaceOnUse">
			<stop stop-color="#FF8763" />
			<stop offset="1" stop-color="#FE0291" />
		</linearGradient>
		<linearGradient id="paint1_linear_362_816" x1="20" y1="13.5977" x2="20" y2="28.5977"
			gradientUnits="userSpaceOnUse">
			<stop stop-color="white" />
			<stop offset="1" stop-color="#FFA7CB" />
		</linearGradient>
	</defs>
</svg>